<svg xmlns="http://www.w3.org/2000/svg" width="36" height="36" viewBox="0 0 8.467 8.467"><g transform="translate(340.235 -625.187)"><path fill="#ffbbec" d="m -333.18938,628.54449 a 3.2102237,3.2102237 0 0 1 -3.21022,3.21022 3.2102237,3.2102237 0 0 1 -3.21023,-3.21022 3.2102237,3.2102237 0 0 1 3.21023,-3.21022 3.2102237,3.2102237 0 0 1 3.21022,3.21022 z"/><g fill="#3a3640" transform="translate(-27.342 396.517)"><path d="M-307.02444 229.39037c-.2647.12572-.40842.28277-.48701.45675-.0786.174-.089.35903-.0898.5507 0 .17706.26565.17706.26565 0 .00078-.18202.012-.32528.0644-.44134.0516-.11435.14514-.21441.33986-.31636.28655-.11743.53904-.0564.84576.13084.27864.17007.62938.48564.9765.79607-.18744.48177-.53136.7201-.95111.87558-.17253.0578-.0768.31642.0918.248.48679-.18029.93426-.49218 1.13876-1.12288.016-.0495.001-.10376-.0371-.13866-.39074-.3477-.73433-.67357-1.08016-.88464-.36955-.2543-.79633-.27874-1.07756-.15406zM-308.65993 233.5516c-.35066 0-.6692.0851-.91023.23238-.24103.14727-.41214.36749-.41214.62688 0 .25938.17111.4796.41214.62686.24103.14726.55957.23239.91023.23239.35065 0 .67115-.0851.91217-.23239.24102-.14726.41214-.36748.41214-.62686 0-.25939-.17111-.47961-.41214-.62688-.24102-.14725-.56152-.23238-.91217-.23238zm0 .26363c.30695 0 .58356.0773.77349.19333.18993.11605.28517.25989.28517.4023 0 .1424-.0952.28429-.28517.40033-.18993.11604-.46654.19529-.77349.19529-.30696 0-.58161-.0793-.77155-.19529-.18992-.11604-.28713-.25793-.28713-.40033 0-.14241.0972-.28625.28713-.4023.18994-.11604.46459-.19333.77155-.19333z" color="#000" font-family="sans-serif" font-weight="400" overflow="visible" white-space="normal" style="line-height:normal;font-variant-ligatures:normal;font-variant-position:normal;font-variant-caps:normal;font-variant-numeric:normal;font-variant-alternates:normal;font-feature-settings:normal;text-indent:0;text-align:start;text-decoration-line:none;text-decoration-style:solid;text-decoration-color:#000;text-transform:none;text-orientation:mixed;shape-padding:0;isolation:auto;mix-blend-mode:normal"/><path d="M-309.06817 234.34446a.13231444.13228657 0 0 0 .0137.26363h.12892a.13231444.13228657 0 1 0 0-.26363h-.12892a.13231444.13228657 0 0 0-.0137 0zM-308.40601 234.34446a.13231444.13228657 0 0 0 .0137.26363h.12892a.13231444.13228657 0 1 0 0-.26363h-.12892a.13231444.13228657 0 0 0-.0137 0z" color="#000" font-family="sans-serif" font-weight="400" overflow="visible" white-space="normal" style="line-height:normal;font-variant-ligatures:normal;font-variant-position:normal;font-variant-caps:normal;font-variant-numeric:normal;font-variant-alternates:normal;font-feature-settings:normal;text-indent:0;text-align:start;text-decoration-line:none;text-decoration-style:solid;text-decoration-color:#000;text-transform:none;text-orientation:mixed;shape-padding:0;isolation:auto;mix-blend-mode:normal"/><path d="M-308.66768 230.1117c-1.82813 0-3.29926 1.53186-3.29926 3.14718 0 .63741.2347 1.19496.62946 1.6281.19739.21657.43426.40254.7013.55493a.13240271.13237481 0 1 0 .13127-.22993c-.24505-.13983-.45951-.30885-.6367-.50326-.35438-.38882-.56073-.87665-.56073-1.44984.00001-1.45287 1.35553-2.88262 3.03466-2.88262 1.67914 0 3.05119 1.4307 3.0512 2.88262 0 .57278-.20808 1.06037-.56538 1.44933-.17866.19447-.39526.36386-.64187.50377a.13231444.13228657 0 1 0 .13075.22993c.2685-.15234.50706-.33842.70595-.55493.39778-.43302.63515-.99038.63515-1.6281 0-1.61627-1.48768-3.14718-3.3158-3.14718zM-310.51163 229.94273c-.22565-.0923-.45357-.0337-.65239.0859-.19883.1196-.38915.29629-.60356.48432a.13231444.13228657 0 1 0 .17384.19919c.21757-.19078.40523-.36.56645-.45696.16121-.097.27462-.12541.41409-.0684a.13231444.13228657 0 1 0 .10157-.24411zM-306.80629 229.94273a.13231444.13228657 0 1 0 .0996.24411c.13948-.0571.25484-.0286.41605.0684.16121.097.34691.26618.56449.45696a.1328512.13282321 0 1 0 .17579-.19919c-.2144-.18803-.40473-.36472-.60355-.48432-.19883-.11958-.42674-.17821-.6524-.0859z" color="#000" font-family="sans-serif" font-weight="400" overflow="visible" white-space="normal" style="line-height:normal;font-variant-ligatures:normal;font-variant-position:normal;font-variant-caps:normal;font-variant-numeric:normal;font-variant-alternates:normal;font-feature-settings:normal;text-indent:0;text-align:start;text-decoration-line:none;text-decoration-style:solid;text-decoration-color:#000;text-transform:none;text-orientation:mixed;shape-padding:0;isolation:auto;mix-blend-mode:normal"/><path style="line-height:normal;font-variant-ligatures:normal;font-variant-position:normal;font-variant-caps:normal;font-variant-numeric:normal;font-variant-alternates:normal;font-feature-settings:normal;text-indent:0;text-align:start;text-decoration-line:none;text-decoration-style:solid;text-decoration-color:#000;text-transform:none;text-orientation:mixed;shape-padding:0;isolation:auto;mix-blend-mode:normal" d="M-310.29493 229.39037c.2647.12572.40841.28277.487.45675.0786.174.089.35903.0898.5507 0 .17706-.26565.17706-.26565 0-.00078-.18202-.012-.32528-.0645-.44134-.0516-.11435-.14514-.21441-.33987-.31636-.28655-.11743-.53904-.0564-.84576.13084-.27864.17007-.62937.48564-.97651.79607.18744.48177.53138.7201.95112.87558.17253.0578.0768.31642-.0918.248-.48678-.18029-.93425-.49218-1.13876-1.12288-.016-.0495-.001-.10376.0371-.13866.39074-.3477.73434-.67357 1.08016-.88464.36956-.2543.79634-.27874 1.07757-.15406zM-310.3244 232.49277c-.16391.0195-.15135.26124.0137.26364h.78912c.19127.0162.19127-.27979 0-.26364-.26709 0-.53679 0-.80282 0zM-307.81055 232.49277c-.16391.0195-.15135.26124.0137.26364h.78913c.19127.0162.19127-.27979 0-.26364-.26709 0-.5368 0-.80283 0zM-311.83394 235.53536c-.21761 0-.39847.17888-.39847.39643 0 .21755.18087.39643.39847.39642h.18946l.35745.59758a.13231444.13228657 0 0 0 .11329.0644h5.02771a.13231444.13228657 0 0 0 .11329-.0644l.35939-.59758h.18947c.21759 0 .39652-.17887.39652-.39642 0-.21755-.17892-.39643-.39652-.39643zm0 .26364h6.35006c.0756 0 .13283.0572.13283.13279 0 .0756-.0573.13279-.13283.13279h-.26564a.13231444.13228657 0 0 0-.11329.0645l-.35745.59562h-4.87731l-.35939-.59562a.13231444.13228657 0 0 0-.11329-.0645h-.26369c-.0756 0-.13283-.0572-.13283-.13279 0-.0756.0573-.13279.13283-.13279z" color="#000" font-family="sans-serif" font-weight="400" overflow="visible" white-space="normal"/><path style="line-height:normal;font-variant-ligatures:normal;font-variant-position:normal;font-variant-caps:normal;font-variant-numeric:normal;font-variant-alternates:normal;font-feature-settings:normal;text-indent:0;text-align:start;text-decoration-line:none;text-decoration-style:solid;text-decoration-color:#000;text-transform:none;text-orientation:mixed;shape-padding:0;isolation:auto;mix-blend-mode:normal" d="m -310.92182,236.06454 a 0.13231444,0.13228657 0 0 0 0.0137,0.26363 h 4.36555 a 0.13231444,0.13228657 0 1 0 0,-0.26363 h -4.36555 a 0.13231444,0.13228657 0 0 0 -0.0137,0 z" color="#000" font-family="sans-serif" font-weight="400" overflow="visible" white-space="normal"/></g></g></svg>