<?xml version="1.0" standalone="no"?>
<!DOCTYPE svg PUBLIC "-//W3C//DTD SVG 20010904//EN"
 "http://www.w3.org/TR/2001/REC-SVG-20010904/DTD/svg10.dtd">
<svg version="1.0" xmlns="http://www.w3.org/2000/svg"
 width="1080.000000pt" height="1080.000000pt" viewBox="0 0 1080.000000 1080.000000"
 preserveAspectRatio="xMidYMid meet">

<g transform="translate(0.000000,1080.000000) scale(0.100000,-0.100000)"
fill="#000000" stroke="none">
<path d="M4270 7180 c13 -9 13 -10 0 -10 -12 0 -12 -2 -2 -9 15 -9 15 -17 1
-43 -9 -17 18 -108 33 -108 4 0 8 -5 8 -11 0 -6 7 -17 15 -25 13 -14 20 -43
16 -68 -1 -4 4 -14 10 -22 6 -8 8 -14 5 -14 -12 0 27 -35 38 -35 6 0 10 -9 9
-18 -1 -13 4 -17 14 -13 11 5 13 2 9 -10 -5 -14 -4 -15 9 -4 12 10 13 15 4 21
-7 4 -9 17 -5 33 4 17 2 26 -5 26 -7 0 -9 9 -6 22 4 14 -4 44 -20 78 -15 30
-27 59 -28 63 0 5 -7 14 -15 20 -20 15 -39 63 -42 102 -2 26 -6 30 -32 32 -23
2 -27 0 -16 -7z"/>
<path d="M4070 7060 c0 -6 5 -10 11 -10 5 0 7 -5 3 -12 -5 -7 -3 -8 6 -3 8 5
11 3 8 -6 -2 -7 -1 -18 4 -24 5 -5 18 -25 28 -42 12 -20 28 -33 40 -33 11 0
20 -7 20 -15 0 -8 5 -15 10 -15 6 0 10 -7 10 -16 0 -21 52 -68 78 -71 16 -2
19 2 15 18 -4 12 -11 18 -20 15 -8 -3 -11 -1 -8 4 3 6 -1 13 -9 16 -9 3 -14
10 -11 14 3 4 -2 13 -10 20 -8 7 -12 16 -9 21 3 5 -2 9 -10 9 -9 0 -16 4 -16
9 0 5 -9 11 -20 14 -10 3 -27 21 -36 41 -10 19 -21 33 -26 30 -4 -3 -8 1 -8 9
0 7 -11 19 -25 25 -15 7 -25 8 -25 2z m90 -110 c0 -5 -2 -10 -4 -10 -3 0 -8 5
-11 10 -3 6 -1 10 4 10 6 0 11 -4 11 -10z"/>
<path d="M5088 6944 c-3 -3 -38 -6 -77 -8 -39 -1 -74 -6 -78 -11 -5 -4 0 -5 9
-2 10 3 20 2 23 -3 3 -4 17 -7 31 -5 14 1 31 -4 38 -11 10 -9 23 -11 42 -5 32
9 57 4 49 -9 -3 -5 11 -7 32 -4 61 9 134 3 146 -11 6 -7 10 -6 13 2 5 12 17
10 69 -12 44 -18 88 -27 81 -17 -9 15 64 2 113 -19 24 -11 46 -17 48 -15 3 3
25 -1 49 -9 32 -9 44 -10 44 -2 0 9 2 9 8 0 7 -12 92 -36 92 -26 0 3 7 0 15
-7 8 -6 19 -9 24 -6 5 4 12 2 16 -4 3 -5 18 -10 33 -10 15 0 46 -9 69 -19 23
-11 44 -17 47 -13 3 3 6 0 6 -6 0 -6 6 -9 14 -6 8 3 19 -4 26 -16 12 -22 5
-43 -8 -25 -9 13 -26 16 -84 18 -27 0 -48 4 -48 9 0 4 -9 8 -19 8 -11 0 -22 4
-26 10 -3 5 -13 6 -22 3 -11 -4 -14 -3 -9 5 4 7 3 12 -2 12 -6 0 -12 -7 -16
-15 -3 -8 -11 -15 -17 -15 -8 0 -9 4 0 13 13 17 2 31 -14 17 -7 -6 -23 -6 -42
-1 -17 5 -36 5 -44 0 -18 -11 -32 -11 -25 0 3 4 -16 7 -41 5 -27 -1 -42 1 -34
5 18 11 -15 19 -63 16 -34 -3 -50 9 -24 17 9 3 9 6 1 11 -7 4 -21 -3 -32 -15
-12 -12 -21 -16 -21 -10 0 10 -5 10 -22 1 -16 -8 -23 -9 -26 -1 -2 6 -10 8
-18 5 -8 -3 -21 0 -28 6 -10 8 -16 9 -21 1 -9 -15 -25 -12 -19 4 5 12 0 13
-28 6 -45 -11 -98 -7 -108 10 -6 10 -9 8 -13 -6 -4 -15 -5 -13 -6 6 -1 17 -4
21 -9 12 -8 -12 -37 -22 -78 -26 -11 -1 -26 -6 -34 -11 -8 -5 -17 -2 -26 9 -9
13 -13 14 -18 4 -4 -9 -8 -10 -11 -2 -4 8 -18 9 -42 4 -19 -5 -41 -6 -48 -3
-7 2 -29 0 -49 -5 -23 -7 -36 -7 -36 -1 0 6 -5 7 -11 3 -18 -11 -143 -11 -158
0 -12 9 -13 8 -9 -5 5 -12 -1 -16 -25 -17 -18 -1 -54 -6 -82 -11 -27 -5 -54
-7 -59 -4 -5 4 -6 0 -1 -7 6 -10 4 -12 -7 -7 -9 3 -20 1 -25 -4 -6 -6 -21 -11
-34 -13 -49 -6 -89 -19 -100 -32 -6 -7 -17 -10 -25 -7 -8 3 -14 1 -14 -5 0 -5
-21 -15 -47 -22 -27 -8 -59 -22 -72 -32 -13 -10 -34 -18 -47 -18 -12 0 -29 -7
-37 -15 -8 -8 -17 -12 -20 -9 -2 3 -20 -4 -38 -15 -19 -12 -30 -21 -24 -21 5
0 4 -5 -3 -12 -6 -6 -31 -12 -54 -13 -24 -1 -44 -7 -46 -15 -3 -7 -13 -20 -23
-28 -11 -9 -19 -25 -19 -35 0 -10 -4 -15 -10 -12 -5 3 -10 -1 -10 -9 0 -9 -6
-16 -13 -16 -7 0 -28 -16 -47 -35 -19 -19 -43 -35 -53 -35 -10 0 -25 -6 -33
-12 -46 -37 -64 -59 -58 -70 4 -7 3 -8 -4 -4 -7 4 -12 2 -12 -3 0 -6 -6 -11
-13 -11 -19 0 -49 -35 -40 -45 5 -4 2 -5 -5 -1 -15 9 -72 -45 -72 -69 0 -9 -4
-14 -8 -11 -5 3 -15 -6 -22 -19 -7 -14 -20 -25 -28 -25 -8 0 -12 -6 -8 -15 3
-8 2 -15 -3 -15 -4 0 -14 -11 -21 -25 -7 -14 -19 -25 -26 -25 -8 0 -11 -6 -8
-13 3 -8 -2 -20 -11 -27 -8 -7 -15 -18 -15 -24 0 -8 2 -8 8 0 10 14 71 44 91
44 9 0 23 9 31 20 8 11 22 20 31 20 9 0 24 9 34 20 10 11 23 20 28 20 12 0
114 67 136 89 9 9 34 30 56 46 22 17 65 55 96 85 86 85 115 110 126 110 6 0
14 7 17 16 5 13 14 14 49 9 23 -4 60 -9 82 -10 22 -1 56 -5 75 -9 19 -3 58 -9
85 -12 195 -24 1110 -38 1890 -30 220 3 267 0 243 -15 -10 -7 -9 -9 4 -9 17 0
50 -26 136 -110 25 -25 42 -38 37 -30 -5 9 -4 12 1 7 5 -5 9 -15 9 -24 0 -9 9
-21 20 -27 24 -14 149 -116 191 -156 17 -17 37 -30 43 -30 7 0 10 -4 7 -9 -3
-5 1 -12 10 -15 8 -3 13 -10 9 -15 -5 -9 26 -25 50 -26 22 -1 82 -51 77 -64
-3 -10 0 -12 12 -8 12 5 28 -4 51 -29 22 -24 40 -34 50 -30 9 3 13 2 10 -4 -3
-6 1 -10 9 -10 9 0 16 -3 17 -7 0 -5 2 -22 3 -39 1 -17 11 -48 23 -70 11 -21
22 -59 26 -82 5 -43 4 -44 -31 -59 -21 -9 -43 -16 -49 -16 -7 0 -13 -3 -13 -7
0 -4 -28 -15 -62 -25 -35 -9 -72 -21 -83 -25 -46 -19 -65 -18 -75 1 -8 14 -7
19 2 19 6 0 3 7 -8 15 -10 8 -14 15 -8 15 12 0 15 30 3 30 -15 0 -26 -34 -22
-64 2 -15 -3 -39 -12 -52 -17 -26 -20 -64 -5 -64 6 0 10 -9 10 -20 0 -11 6
-20 13 -21 6 0 3 -4 -8 -9 -11 -5 -15 -9 -8 -9 7 -1 10 -8 7 -16 -4 -8 -1 -15
4 -15 10 0 8 -68 -3 -78 -2 -3 0 -13 6 -23 7 -14 6 -19 -2 -19 -8 0 -10 -12
-6 -34 4 -24 1 -39 -9 -47 -19 -15 -18 -29 2 -29 11 0 14 5 10 16 -5 14 -4 15
8 5 20 -17 26 -3 31 71 2 34 8 64 13 66 6 2 6 21 1 48 -5 26 -6 50 -3 55 3 5
-1 9 -8 9 -8 0 -13 12 -13 30 0 22 6 31 25 36 14 4 29 6 34 5 5 -1 12 2 15 7
7 10 182 72 223 79 16 2 36 -1 44 -8 16 -13 19 -34 4 -24 -5 3 -10 -3 -10 -14
0 -12 5 -21 11 -21 5 0 7 -5 3 -12 -10 -16 -6 -76 6 -98 6 -11 6 -30 0 -49 -5
-19 -5 -31 1 -31 15 0 10 -27 -7 -34 -9 -4 -12 -11 -7 -18 10 -17 11 -61 2
-68 -5 -3 -9 -22 -11 -43 -1 -20 -5 -37 -8 -37 -3 0 -5 -28 -5 -63 0 -47 -4
-66 -18 -79 -11 -10 -14 -19 -7 -23 15 -9 12 -42 -4 -48 -8 -3 -21 -27 -31
-54 -31 -88 -49 -126 -70 -146 -11 -11 -13 -17 -5 -13 8 4 5 -1 -7 -10 -13 -9
-23 -24 -23 -34 0 -9 -3 -20 -7 -24 -5 -4 -8 -11 -8 -16 0 -4 -20 -26 -44 -48
-29 -27 -42 -45 -38 -56 4 -11 1 -16 -10 -16 -9 0 -14 -3 -11 -6 3 -3 -5 -17
-18 -31 -13 -14 -21 -30 -17 -36 4 -6 0 -8 -9 -4 -24 9 -57 -19 -51 -43 4 -15
-2 -22 -21 -30 -15 -5 -25 -14 -21 -19 3 -5 0 -13 -6 -17 -8 -4 -9 -3 -5 4 10
17 -3 15 -20 -3 -9 -8 -12 -19 -9 -25 8 -13 35 -13 35 -1 0 5 10 13 22 17 28
9 68 49 68 69 0 9 8 18 18 22 22 8 82 72 82 88 0 6 11 18 25 25 14 7 25 17 25
22 0 5 6 15 13 22 6 7 21 25 32 40 21 27 32 28 130 10 11 -2 49 -7 85 -10 36
-4 74 -10 86 -14 25 -10 197 -6 214 5 7 4 20 9 29 10 9 0 51 18 95 38 43 20
82 37 86 37 4 0 10 7 14 15 3 8 12 15 21 15 8 0 15 5 15 11 0 11 29 44 39 44
11 0 49 43 44 49 -4 3 1 6 10 6 10 0 17 5 17 11 0 6 12 23 26 39 15 15 26 30
26 33 -1 4 12 21 28 39 17 18 28 39 25 46 -3 7 6 25 20 39 13 15 22 30 19 35
-3 4 2 11 10 14 9 3 16 10 16 16 0 5 -5 6 -12 2 -6 -4 -3 5 8 19 10 15 22 27
26 27 4 0 10 20 14 45 3 25 10 48 15 51 5 3 7 10 4 15 -4 5 -2 9 4 9 6 0 7 7
4 17 -5 12 -3 14 7 8 8 -5 11 -4 6 3 -3 6 -1 23 5 39 6 15 12 51 13 78 1 28 6
57 11 65 8 13 6 13 -8 1 -15 -11 -17 -11 -17 2 0 8 6 18 13 20 9 4 9 6 0 6 -7
1 -13 6 -13 12 0 5 3 8 8 6 4 -3 8 5 8 18 1 15 -6 26 -21 33 -13 6 -25 24 -30
44 -4 18 -9 35 -9 38 -12 38 -19 50 -26 50 -5 0 -7 7 -4 15 4 8 1 15 -5 15 -7
0 -15 8 -18 18 -9 23 -78 92 -92 92 -7 0 -32 20 -58 45 -25 25 -49 45 -54 45
-5 0 -9 5 -9 11 0 5 -5 7 -10 4 -6 -3 -17 1 -26 9 -8 9 -24 16 -35 16 -10 0
-19 4 -19 9 0 38 -235 58 -286 24 -13 -8 -21 -19 -18 -24 3 -5 -2 -6 -10 -3
-9 3 -16 1 -16 -6 0 -6 -4 -8 -10 -5 -5 3 -10 2 -10 -4 0 -5 -8 -12 -18 -15
-9 -3 -26 -22 -36 -41 -11 -19 -23 -35 -27 -35 -4 0 -12 -14 -18 -30 -5 -17
-24 -38 -40 -48 -17 -9 -31 -20 -31 -24 0 -18 -16 -6 -17 12 -1 11 -9 27 -17
36 -9 8 -16 32 -16 53 0 20 -6 43 -12 49 -10 10 -10 17 0 32 16 26 15 40 -3
40 -8 0 -15 4 -15 10 0 5 8 7 18 3 12 -4 10 2 -8 18 -25 24 -32 40 -33 69 0 8
-5 21 -10 28 -6 8 -12 23 -14 34 -3 22 -26 48 -42 48 -6 0 -8 7 -5 15 4 8 2
15 -4 15 -5 0 -12 6 -15 14 -4 10 0 14 14 11 10 -2 19 1 19 7 0 5 -6 8 -13 5
-17 -6 -51 19 -43 32 4 5 1 13 -5 16 -5 4 -8 13 -5 21 3 8 -1 14 -8 14 -8 0
-17 11 -20 25 -4 14 -11 25 -17 25 -13 0 -40 26 -33 33 3 2 -7 14 -21 25 -15
12 -24 25 -21 31 3 5 -1 12 -10 15 -22 8 -26 8 -19 -4 3 -6 -1 -7 -9 -4 -9 3
-14 10 -11 15 7 11 -26 49 -43 49 -7 0 -11 4 -7 9 3 5 1 12 -5 16 -5 3 -10 -2
-10 -12 -1 -17 -1 -17 -11 0 -5 9 -16 17 -24 17 -8 0 -17 5 -21 12 -5 7 -3 8
6 3 24 -15 5 18 -20 34 -22 15 -24 15 -17 -2 4 -11 3 -16 -3 -12 -6 3 -10 15
-10 26 0 15 -5 19 -17 15 -10 -3 -25 -1 -33 4 -13 8 -13 10 -1 10 25 0 -21 29
-47 30 -13 0 -20 4 -17 10 3 6 -3 10 -14 10 -12 0 -21 7 -21 15 0 8 -11 17
-24 21 -18 4 -23 11 -18 22 5 15 4 15 -11 3 -11 -9 -17 -10 -17 -2 0 6 -7 11
-15 11 -8 0 -15 4 -15 10 0 5 -8 9 -17 8 -39 -3 -52 3 -61 30 -6 15 -11 22
-11 17 -1 -11 -32 -11 -68 0 -13 4 -20 12 -16 21 4 10 0 12 -11 8 -9 -4 -16
-1 -16 6 0 10 -3 10 -15 0 -11 -9 -15 -10 -15 -1 0 8 -8 10 -21 6 -15 -5 -19
-4 -15 4 4 6 0 11 -8 11 -9 0 -16 4 -16 9 0 5 -9 7 -20 4 -12 -3 -20 0 -20 6
0 7 5 9 12 5 6 -4 8 -3 5 4 -4 5 -15 8 -26 5 -10 -2 -25 2 -33 11 -9 8 -18 12
-22 9 -3 -3 -12 -1 -20 6 -8 6 -18 11 -22 10 -5 -2 -43 8 -84 20 -85 26 -92
28 -102 30 -4 1 -23 8 -43 17 -19 8 -35 11 -35 8 0 -4 -6 -1 -14 5 -8 6 -18
11 -22 10 -14 -4 -120 11 -208 28 -66 13 -80 13 -87 2 -5 -8 -9 -9 -9 -3 0 13
-65 26 -155 31 -96 5 -107 4 -134 -13 -14 -9 -23 -13 -19 -9 4 4 0 14 -10 21
-19 15 -26 17 -34 8z m1025 -287 c-8 -13 -23 3 -23 26 0 20 0 20 14 2 8 -11
12 -23 9 -28z m1595 -917 c34 -7 62 -16 62 -21 0 -4 13 -10 29 -14 16 -3 43
-17 62 -31 18 -13 38 -24 44 -24 7 0 17 -10 24 -22 6 -13 27 -33 46 -46 19
-12 35 -27 35 -32 0 -6 5 -10 11 -10 15 0 49 -39 49 -57 0 -7 9 -22 20 -33 11
-11 21 -35 23 -55 2 -19 10 -42 17 -50 16 -19 21 -125 7 -143 -6 -7 -11 -33
-12 -57 -1 -24 -12 -60 -23 -79 -12 -20 -24 -51 -28 -71 -6 -33 -34 -62 -47
-49 -3 3 -3 -3 0 -15 3 -12 -5 -38 -21 -66 -15 -25 -24 -50 -20 -57 4 -7 3 -8
-4 -4 -8 5 -12 0 -12 -13 0 -12 -7 -21 -15 -21 -8 0 -23 -17 -34 -37 -20 -39
-73 -96 -88 -94 -4 1 -8 -5 -8 -11 0 -7 -9 -12 -19 -10 -11 2 -15 -1 -11 -7 3
-6 0 -11 -7 -11 -7 0 -19 -9 -26 -20 -7 -11 -17 -20 -23 -20 -6 0 -17 -7 -26
-15 -9 -10 -23 -13 -35 -9 -14 4 -18 2 -14 -5 4 -6 0 -11 -9 -11 -8 0 -18 -6
-21 -13 -3 -8 -21 -13 -45 -13 -22 0 -43 -5 -47 -10 -4 -6 -23 -11 -42 -12
-19 0 -64 -1 -100 -2 -36 -1 -67 0 -70 1 -8 3 -59 7 -137 11 -40 1 -73 4 -73
6 0 8 55 97 62 100 4 2 8 12 8 22 0 22 31 93 43 99 5 2 13 15 18 29 7 18 6 28
-3 34 -11 6 -11 8 0 8 7 0 10 5 7 10 -3 6 1 10 9 10 9 0 16 5 16 10 0 6 -5 10
-11 10 -7 0 -8 7 -4 18 4 9 8 26 9 38 2 11 6 26 10 32 4 7 1 12 -6 12 -9 1 -8
4 3 13 10 7 18 33 21 66 3 29 11 57 19 62 8 5 10 9 4 9 -6 0 -10 50 -10 131 0
72 -3 132 -6 135 -3 2 -4 15 -1 30 3 16 -1 29 -9 35 -12 7 -12 9 0 9 10 0 11
4 3 13 -18 21 -9 65 16 78 12 7 21 17 19 22 -1 5 10 23 25 39 15 17 28 36 28
43 0 7 11 20 25 29 14 9 25 23 25 31 0 8 3 14 8 13 4 -2 22 8 40 22 19 14 37
25 41 25 4 0 15 7 23 16 19 18 65 18 156 -1z"/>
<path d="M7921 5121 c-18 -17 -27 -32 -21 -36 5 -3 10 -1 10 4 0 6 9 11 21 11
11 0 17 5 14 10 -3 6 0 10 8 10 7 0 14 7 14 15 0 22 -11 19 -46 -14z"/>
<path d="M7871 5091 c0 -16 3 -20 6 -11 3 8 10 20 14 26 5 7 3 11 -6 11 -10 0
-15 -10 -14 -26z"/>
<path d="M7807 5094 c-5 -5 -28 -11 -57 -14 -8 -1 1 -8 20 -17 23 -10 36 -11
38 -4 2 6 15 11 28 11 15 0 24 6 24 15 0 8 -5 15 -11 15 -5 0 -7 -5 -3 -11 5
-8 1 -8 -13 0 -11 6 -23 8 -26 5z"/>
<path d="M7690 5046 c0 -10 4 -15 9 -11 5 3 12 1 16 -5 12 -19 45 -11 45 10 0
22 -7 25 -30 10 -9 -5 -19 -5 -27 2 -10 8 -13 6 -13 -6z"/>
<path d="M7664 5029 c-3 -6 -12 -8 -19 -6 -13 6 -49 -30 -37 -37 11 -6 62 5
62 14 0 5 9 10 20 12 21 3 21 3 1 15 -14 9 -22 9 -27 2z"/>
<path d="M7561 4964 c8 -10 15 -11 24 -4 6 5 15 8 18 5 4 -3 5 -2 2 2 -3 3
-17 8 -31 9 -21 2 -23 0 -13 -12z"/>
<path d="M7540 4950 c0 -5 5 -10 11 -10 5 0 7 5 4 10 -3 6 -8 10 -11 10 -2 0
-4 -4 -4 -10z"/>
<path d="M4830 6922 c0 -13 9 -17 38 -18 20 -1 29 0 19 3 -9 2 -15 8 -12 13 3
5 13 6 23 3 9 -3 14 -2 9 2 -4 5 -23 10 -42 11 -27 3 -35 -1 -35 -14z"/>
<path d="M4755 6919 c-4 -6 -5 -12 -2 -15 2 -3 7 2 10 11 7 17 1 20 -8 4z"/>
<path d="M4792 6923 c11 -3 15 -11 12 -21 -5 -15 -4 -15 5 -2 16 23 13 30 -11
29 -17 -1 -18 -3 -6 -6z"/>
<path d="M4916 6895 c-3 -8 -1 -15 4 -15 6 0 10 5 10 10 0 6 5 10 11 10 5 0 7
-5 3 -12 -4 -7 -3 -8 4 -4 18 11 14 26 -7 26 -10 0 -21 -7 -25 -15z"/>
<path d="M4980 6900 c0 -5 5 -10 11 -10 5 0 7 5 4 10 -3 6 -8 10 -11 10 -2 0
-4 -4 -4 -10z"/>
<path d="M5013 6895 c0 -8 4 -12 9 -9 5 3 6 10 3 15 -9 13 -12 11 -12 -6z"/>
<path d="M3972 6703 c-18 -7 -32 -17 -32 -23 0 -5 -7 -6 -17 -3 -11 4 -14 3
-9 -5 5 -8 2 -10 -8 -6 -10 4 -16 1 -16 -7 0 -7 -3 -10 -6 -6 -4 3 -13 0 -21
-8 -8 -8 -23 -15 -33 -15 -10 0 -22 -9 -25 -20 -4 -11 -10 -18 -15 -15 -13 8
-92 -44 -85 -55 3 -6 0 -11 -7 -11 -38 -4 -78 -20 -72 -30 3 -5 -1 -9 -9 -9
-18 0 -59 -35 -50 -44 3 -3 2 -6 -4 -6 -14 0 -91 -73 -95 -90 -6 -25 -36 -53
-52 -47 -10 4 -16 1 -16 -7 0 -7 -7 -19 -15 -26 -8 -7 -15 -27 -16 -44 0 -25
-2 -27 -8 -11 -8 19 -9 19 -16 -5 -5 -14 -8 -31 -7 -37 2 -7 -3 -10 -10 -8 -8
3 -25 -14 -42 -40 -16 -26 -34 -52 -41 -58 -24 -25 -36 -55 -24 -63 8 -5 6
-10 -5 -16 -9 -5 -14 -14 -10 -19 3 -6 -4 -17 -15 -26 -16 -11 -20 -21 -15
-36 3 -12 3 -19 -1 -15 -4 4 -17 3 -27 -3 -17 -9 -19 -18 -15 -50 4 -28 1 -42
-11 -51 -13 -11 -15 -10 -9 5 4 11 3 16 -4 12 -5 -4 -7 -15 -4 -26 4 -11 2
-19 -5 -19 -7 0 -10 -8 -8 -18 3 -11 -2 -23 -13 -30 -10 -6 -18 -19 -18 -29 0
-10 -2 -36 -6 -58 -3 -22 -7 -53 -8 -70 -2 -16 -8 -40 -15 -52 -7 -12 -14 -46
-17 -75 -3 -29 -8 -64 -12 -78 -10 -42 -12 -70 -5 -70 4 0 7 -18 7 -40 0 -22
-2 -40 -5 -40 -3 0 -5 -20 -5 -45 0 -25 4 -45 9 -45 5 0 3 -6 -3 -14 -8 -10
-7 -22 3 -48 9 -19 17 -70 20 -113 3 -43 9 -81 13 -84 4 -3 9 -24 11 -46 3
-36 29 -95 42 -95 3 0 6 -14 7 -31 1 -18 9 -39 18 -49 8 -9 15 -22 15 -28 0
-7 5 -21 12 -32 11 -16 9 -23 -10 -40 -12 -11 -24 -20 -27 -20 -37 1 -55 -2
-51 -8 3 -5 -1 -9 -9 -9 -8 0 -15 5 -15 11 0 8 -2 8 -8 0 -14 -22 -48 -34 -60
-22 -7 7 -12 8 -12 2 0 -10 -119 -12 -136 -2 -6 4 -30 10 -53 14 -23 4 -44 11
-47 15 -3 5 -9 7 -14 4 -5 -3 -20 1 -33 10 -13 8 -27 12 -30 8 -4 -3 -7 -2 -7
3 0 6 -19 21 -42 34 -50 28 -70 45 -61 54 4 3 -1 6 -10 6 -9 0 -17 4 -17 9 0
5 -18 29 -40 52 -22 24 -40 49 -40 56 0 7 -4 13 -9 13 -19 0 -64 74 -64 106 0
20 -4 31 -10 27 -6 -4 -8 1 -4 11 4 9 3 15 -2 12 -9 -6 -21 16 -21 39 0 8 -5
26 -12 42 -24 60 -38 132 -27 139 5 3 4 15 -3 27 -16 29 -17 178 -2 194 7 7
10 22 7 33 -3 12 0 20 7 20 10 0 9 4 -1 16 -11 14 -11 18 1 28 8 6 15 24 14
40 -1 16 8 38 21 52 13 14 26 40 29 59 5 26 13 36 31 41 14 3 22 10 19 15 -3
5 0 9 7 9 7 0 19 7 28 15 9 8 26 23 38 34 13 11 28 18 35 16 7 -3 26 7 42 22
17 15 42 27 59 28 36 2 44 16 21 36 -13 10 -18 11 -21 2 -2 -7 -11 -9 -19 -6
-20 7 -64 -16 -64 -34 0 -9 -8 -11 -25 -7 -22 5 -64 -17 -135 -73 -8 -7 -23
-19 -34 -26 -10 -7 -19 -28 -21 -47 -1 -20 -11 -39 -24 -49 -12 -9 -23 -27
-26 -39 -6 -33 -26 -94 -38 -116 -5 -11 -11 -64 -12 -118 -1 -54 -5 -101 -8
-104 -3 -4 -1 -18 5 -33 5 -14 12 -42 14 -61 7 -66 16 -110 23 -110 3 0 7 -12
8 -26 0 -15 5 -29 10 -33 4 -3 9 -15 11 -26 2 -11 10 -33 18 -49 8 -16 14 -37
14 -47 0 -10 18 -37 40 -59 22 -22 43 -52 46 -65 3 -14 11 -25 18 -25 6 0 17
-9 24 -20 10 -16 10 -20 0 -20 -7 0 0 -11 16 -25 16 -13 32 -23 36 -20 4 2 13
-6 19 -19 7 -13 28 -29 46 -36 19 -7 32 -17 29 -22 -3 -4 2 -11 10 -14 9 -3
13 -10 10 -15 -3 -5 2 -6 11 -3 18 7 75 -14 75 -28 0 -6 7 -8 15 -4 8 3 15 1
15 -3 0 -5 10 -9 23 -9 12 0 38 -3 57 -7 62 -12 152 -17 169 -9 9 4 24 8 34 9
10 1 28 7 40 13 12 5 30 13 40 16 9 3 22 16 27 28 5 13 9 17 9 11 1 -20 17
-15 29 10 6 12 11 17 11 10 1 -7 8 -10 16 -7 13 5 21 -8 13 -19 -4 -4 29 -37
36 -37 3 0 16 -11 30 -25 14 -14 23 -25 20 -25 -2 0 2 -13 11 -30 9 -16 22
-30 30 -30 8 0 15 -7 15 -15 0 -19 56 -82 81 -90 10 -4 19 -11 19 -16 0 -12
14 -30 60 -74 60 -57 83 -75 97 -75 8 0 11 -4 8 -10 -3 -5 0 -10 8 -10 8 0 17
-7 21 -15 3 -8 11 -15 18 -15 8 0 20 -9 28 -20 8 -11 31 -23 52 -26 20 -4 39
-13 42 -20 3 -8 12 -14 19 -14 8 0 27 -11 43 -25 16 -14 36 -24 44 -23 8 1 21
-1 28 -6 7 -4 28 -10 45 -13 18 -3 34 -9 35 -14 2 -5 10 -9 18 -9 8 0 14 -3
14 -8 0 -11 58 -34 70 -27 5 3 10 1 10 -6 0 -7 3 -9 7 -6 3 4 13 1 21 -5 8 -7
26 -14 41 -16 14 -2 27 -7 29 -12 2 -4 12 -6 23 -3 10 3 26 0 34 -7 8 -6 19
-9 25 -5 5 3 10 2 10 -4 0 -5 8 -8 18 -6 9 1 32 -4 50 -11 18 -7 39 -11 47 -7
9 3 21 0 29 -6 8 -7 39 -13 69 -14 30 -1 53 -5 50 -9 -6 -12 25 -10 48 2 14 8
26 7 47 -4 19 -10 33 -11 45 -5 9 6 22 7 28 3 7 -4 10 -1 7 7 -3 8 -15 13 -26
11 -12 -2 -22 2 -22 7 0 6 -5 11 -11 11 -5 0 -7 -5 -3 -12 8 -13 -11 -3 -37
19 -12 10 -23 11 -43 4 -14 -6 -26 -7 -26 -3 0 4 -14 9 -32 10 -17 2 -45 11
-62 21 -17 10 -42 17 -56 16 -14 -1 -35 4 -47 12 -12 8 -26 12 -31 9 -5 -3
-17 1 -28 8 -10 8 -24 12 -31 9 -7 -3 -25 2 -39 12 -14 9 -35 15 -45 12 -11
-3 -26 1 -33 9 -8 8 -19 14 -25 14 -6 0 -11 6 -11 13 0 9 -2 9 -9 -1 -6 -10
-10 -10 -21 3 -7 8 -17 15 -22 15 -13 0 -82 32 -88 41 -3 4 -12 7 -20 6 -22
-2 -110 24 -110 32 0 11 -59 52 -82 56 -11 3 -28 11 -37 18 -9 8 -31 22 -50
32 -19 10 -61 44 -94 76 -32 33 -62 57 -66 54 -4 -2 -15 11 -24 30 -9 19 -21
35 -25 35 -14 0 -66 52 -68 68 -2 8 -12 21 -23 29 -12 8 -21 21 -21 29 0 8 -4
13 -9 10 -5 -3 -12 6 -15 19 -4 14 -11 23 -16 20 -9 -6 -14 8 -11 28 1 4 -10
12 -24 17 -14 5 -24 13 -23 17 3 15 -21 63 -32 63 -5 0 -10 9 -10 19 0 11 -5
23 -10 26 -6 4 -8 10 -5 14 2 5 -4 19 -16 32 -11 12 -17 29 -15 36 3 7 1 13
-4 13 -5 0 -6 7 -3 17 4 11 3 14 -5 9 -7 -4 -12 -1 -13 6 0 7 -2 20 -4 28 -2
8 -7 31 -11 50 -3 19 -11 38 -17 42 -7 4 -7 8 -2 8 6 0 4 4 -4 9 -12 7 -12 13
-3 24 7 7 9 17 5 20 -3 4 -7 26 -8 51 -1 24 -6 49 -10 57 -9 14 -14 129 -7
144 10 18 11 55 1 55 -6 0 -7 4 -4 10 3 5 1 18 -5 29 -8 15 -6 27 9 53 14 23
18 46 15 77 -2 25 1 48 6 51 6 4 12 20 14 36 10 69 18 99 29 106 9 6 9 8 0 8
-25 0 -14 40 14 51 15 6 23 13 18 17 -16 12 -11 36 13 60 21 22 26 42 22 90
-1 16 4 22 20 22 16 0 21 5 18 23 -1 12 8 39 20 58 12 20 22 48 22 63 0 15 7
29 15 32 8 4 12 10 9 15 -3 5 3 9 12 9 10 0 15 3 11 6 -5 5 56 92 113 161 6 7
10 19 10 28 0 8 3 14 8 13 10 -4 62 47 62 61 0 7 4 9 10 6 6 -3 7 1 4 9 -4 10
-1 16 9 16 9 0 31 18 48 40 18 22 37 40 43 40 7 0 24 14 39 31 15 17 27 28 27
24 0 -4 7 -2 15 5 11 9 15 9 15 1 0 -6 14 4 31 24 17 19 37 35 43 35 7 0 21 9
31 20 10 11 20 18 23 16 2 -3 18 10 36 27 42 42 72 65 62 50 -4 -7 -2 -13 3
-13 6 0 11 6 11 13 0 7 9 13 20 14 19 2 50 25 50 37 0 8 -34 3 -68 -11z"/>
<path d="M7828 6563 c7 -3 16 -2 19 1 4 3 -2 6 -13 5 -11 0 -14 -3 -6 -6z"/>
<path d="M7604 6506 c-3 -14 -3 -29 0 -34 6 -11 46 -4 46 7 -1 16 -19 33 -29
27 -7 -5 -9 -1 -5 8 3 9 3 16 0 16 -3 0 -8 -11 -12 -24z"/>
<path d="M7672 6518 c-7 -7 -12 -16 -12 -21 0 -5 7 -1 16 8 9 9 14 18 12 20
-2 3 -10 -1 -16 -7z"/>
<path d="M7110 6475 c0 -5 5 -17 10 -25 5 -8 10 -10 10 -5 0 6 -5 17 -10 25
-5 8 -10 11 -10 5z"/>
<path d="M7170 6350 c0 -5 5 -10 11 -10 5 0 7 5 4 10 -3 6 -8 10 -11 10 -2 0
-4 -4 -4 -10z"/>
<path d="M6436 6277 c3 -10 9 -15 12 -12 3 3 0 11 -7 18 -10 9 -11 8 -5 -6z"/>
<path d="M7901 6174 c0 -11 3 -14 6 -6 3 7 2 16 -1 19 -3 4 -6 -2 -5 -13z"/>
<path d="M7805 6140 c-3 -5 -15 -10 -26 -10 -10 0 -19 -4 -19 -9 0 -6 12 -6
30 1 30 10 50 28 31 28 -5 0 -13 -4 -16 -10z"/>
<path d="M7665 6100 c-3 -5 -1 -10 4 -10 6 0 11 5 11 10 0 6 -2 10 -4 10 -3 0
-8 -4 -11 -10z"/>
<path d="M7380 6071 c0 -6 5 -13 10 -16 6 -3 10 1 10 9 0 9 -4 16 -10 16 -5 0
-10 -4 -10 -9z"/>
<path d="M7544 6045 c-10 -8 -14 -15 -8 -15 5 0 19 7 30 15 10 8 14 15 8 15
-5 0 -19 -7 -30 -15z"/>
<path d="M7420 6030 c0 -5 5 -10 10 -10 6 0 10 5 10 10 0 6 -4 10 -10 10 -5 0
-10 -4 -10 -10z"/>
<path d="M3290 5896 c0 -2 7 -7 16 -10 8 -3 12 -2 9 4 -6 10 -25 14 -25 6z"/>
<path d="M4114 5879 c-16 -10 -38 -19 -49 -20 -13 -1 -9 -4 10 -8 17 -4 35 -5
40 -2 9 6 32 6 45 1 21 -8 46 -7 57 2 9 7 17 7 26 0 6 -5 32 -8 56 -6 24 2 49
0 56 -6 10 -9 61 -7 110 5 11 3 14 2 8 -1 -7 -3 -13 -9 -13 -14 0 -9 162 -6
179 4 6 4 11 0 11 -9 0 -10 4 -13 13 -8 16 10 57 12 57 3 0 -8 5 -8 172 -10
64 -1 121 1 127 5 6 3 11 2 11 -4 0 -16 53 -4 67 15 13 17 11 20 -24 26 -45 8
-126 16 -241 23 -46 3 -88 7 -92 10 -5 3 -11 1 -15 -4 -3 -6 -11 -8 -18 -6
-36 13 -487 27 -487 15 0 -10 -50 -7 -67 3 -5 3 -22 -3 -39 -14z"/>
<path d="M2660 5835 c-7 -9 -15 -28 -16 -42 l-3 -25 24 22 c13 12 28 19 33 16
6 -3 22 -2 37 4 17 7 24 7 20 0 -3 -6 -1 -10 5 -10 6 0 13 7 16 15 4 8 10 12
16 9 5 -3 4 -13 -4 -22 -11 -15 -11 -15 4 -4 9 7 28 11 45 7 15 -3 22 -2 16 1
-7 3 -13 11 -13 17 0 7 -10 13 -22 14 -13 1 -50 5 -83 9 -50 5 -63 3 -75 -11z"/>
<path d="M2895 5801 c-7 -12 29 -33 39 -24 3 3 6 2 6 -4 0 -6 10 -13 23 -16
21 -6 21 -5 -3 14 -14 10 -30 23 -37 29 -15 12 -20 13 -28 1z"/>
<path d="M5637 5765 c-5 -12 -11 -14 -27 -5 -16 9 -19 8 -13 -6 5 -13 3 -15
-7 -9 -9 6 -11 4 -6 -4 5 -7 14 -10 22 -7 7 3 16 1 19 -4 4 -6 11 -10 16 -10
6 0 7 4 4 10 -4 7 3 7 20 0 17 -7 24 -7 20 0 -9 14 8 13 23 -2 6 -6 51 -13 99
-15 124 -7 123 -6 123 -15 0 -4 7 -8 16 -8 8 0 13 4 10 8 -3 5 39 7 92 5 105
-3 110 -4 162 -20 19 -6 42 -11 50 -12 8 0 32 -2 53 -5 20 -2 37 -1 37 4 0 11
123 4 168 -9 17 -5 32 -6 32 -2 0 5 22 4 49 -2 32 -6 69 -6 105 0 37 7 59 6
66 -1 7 -7 10 -7 10 1 0 6 8 10 18 9 29 -2 19 27 -13 36 -51 15 -259 32 -340
29 -16 -1 -40 3 -52 10 -17 9 -26 8 -44 -4 -16 -12 -27 -13 -41 -6 -10 5 -18
7 -18 3 0 -3 -6 -2 -13 5 -8 6 -24 8 -37 6 -13 -2 -28 -1 -34 4 -6 5 -73 8
-149 8 -75 -1 -137 0 -137 3 0 3 -28 6 -63 8 -34 1 -72 4 -84 7 -13 2 -25 0
-28 -4 -5 -9 -60 -5 -76 4 -5 4 -9 0 -9 -7 0 -11 -2 -10 -9 0 -7 11 -9 10 -14
-3z"/>
<path d="M2995 5740 c3 -5 11 -10 16 -10 6 0 7 5 4 10 -3 6 -11 10 -16 10 -6
0 -7 -4 -4 -10z"/>
<path d="M3856 5692 c-3 -5 1 -9 9 -9 8 0 12 4 9 9 -3 4 -7 8 -9 8 -2 0 -6 -4
-9 -8z"/>
<path d="M3190 5675 c-11 -13 -10 -14 5 -9 13 6 16 4 10 -5 -5 -10 -2 -11 14
-6 11 3 21 3 21 -2 0 -9 16 -12 75 -16 19 -1 35 -5 35 -8 0 -11 37 -17 51 -8
7 4 16 4 19 -1 6 -10 73 -21 125 -21 17 0 37 -3 45 -6 17 -6 20 -7 105 -18 75
-9 97 -9 104 3 4 6 16 6 29 1 13 -5 20 -13 17 -19 -3 -5 -1 -10 4 -10 6 0 11
14 11 31 0 24 -3 30 -16 25 -10 -4 -14 -2 -11 6 2 7 10 12 16 11 17 -4 13 14
-5 21 -22 8 -24 8 -19 -6 3 -7 1 -19 -4 -27 -7 -11 -13 -10 -34 3 -15 10 -52
18 -93 20 -38 2 -80 7 -94 10 -14 3 -59 8 -100 12 -123 11 -152 15 -236 30
-20 4 -35 1 -39 -6 -6 -9 -9 -9 -15 -1 -5 9 -10 7 -20 -4z"/>
<path d="M5400 5611 c0 -7 -5 -9 -12 -5 -9 5 -9 2 1 -9 7 -9 10 -17 7 -17 -4
0 -3 -8 3 -17 5 -10 5 -26 0 -41 -5 -13 -5 -21 0 -18 4 3 7 -9 5 -26 -2 -18
-9 -35 -15 -39 -8 -5 -8 -8 0 -13 6 -4 11 -2 11 3 0 6 5 11 11 11 5 0 7 -6 3
-12 -4 -7 -4 -10 0 -6 11 9 13 108 3 108 -4 0 -5 5 -2 10 4 6 1 17 -5 25 -8 9
-8 15 -2 15 6 0 9 7 8 15 -3 19 -16 32 -16 16z"/>
<path d="M5165 5600 c-3 -5 -1 -10 5 -10 6 0 8 -5 4 -12 -4 -7 -3 -8 4 -4 6 4
9 13 5 21 -6 18 -10 19 -18 5z"/>
<path d="M3816 5555 c-3 -8 0 -17 6 -21 7 -4 6 -9 -3 -15 -8 -5 -9 -9 -4 -9
17 0 12 -88 -7 -109 -12 -14 -13 -21 -5 -25 9 -3 9 -5 0 -5 -6 -1 -9 -10 -6
-21 3 -11 2 -28 -2 -37 -5 -10 -7 -24 -6 -32 1 -7 -2 -10 -7 -7 -6 3 -8 -2 -5
-14 3 -11 9 -20 13 -20 8 0 2 -37 -9 -55 -3 -5 -6 -21 -6 -35 0 -14 -4 -28
-10 -32 -6 -5 -5 -8 2 -8 7 0 10 -7 7 -15 -4 -9 5 -33 19 -54 20 -30 33 -40
61 -43 19 -2 33 -1 30 3 -6 10 53 22 67 14 6 -4 27 -9 47 -11 60 -6 184 -16
224 -18 20 0 40 -4 44 -8 10 -11 76 -10 94 2 9 5 19 5 27 -1 7 -6 18 -7 25 -3
18 11 48 12 48 2 0 -5 4 -6 10 -3 5 3 24 -2 40 -12 26 -15 32 -16 40 -4 6 11
12 12 22 3 17 -13 79 -19 96 -8 7 4 19 2 27 -4 11 -9 19 -9 28 -2 8 7 18 7 27
2 8 -5 22 -4 33 1 13 7 23 7 33 -2 8 -6 14 -7 14 -2 0 5 14 8 30 7 17 -1 33 3
37 9 4 6 -2 8 -15 5 -16 -5 -19 -2 -15 11 5 12 3 13 -6 5 -14 -13 -51 -7 -51
8 0 5 -9 4 -21 -2 -15 -9 -24 -8 -34 0 -8 7 -33 10 -55 8 -22 -2 -40 1 -40 5
0 5 -6 5 -13 -2 -10 -8 -17 -7 -25 1 -9 9 -12 9 -12 0 0 -7 -4 -12 -10 -12 -5
0 -9 5 -7 11 1 7 -15 12 -43 14 -25 1 -63 5 -85 8 -76 14 -156 16 -149 5 4 -7
0 -7 -12 0 -11 5 -25 7 -33 4 -8 -3 -11 0 -7 6 4 8 -5 10 -29 8 -19 -1 -35 1
-35 4 0 4 -24 7 -52 7 -29 0 -87 3 -128 7 -41 4 -98 7 -126 6 -41 -1 -53 3
-59 17 -12 25 -14 83 -4 83 15 0 22 69 9 85 -7 8 -8 15 -3 15 5 0 8 29 7 65
-1 36 2 65 6 65 16 0 21 52 6 64 -15 11 -17 31 -4 51 3 6 -2 20 -12 32 -14 18
-19 20 -24 8z"/>
<path d="M5160 5555 c0 -6 6 -17 13 -24 8 -10 8 -12 0 -7 -6 3 -14 2 -18 -4
-3 -5 -3 -10 2 -10 13 0 8 -57 -7 -75 -9 -11 -9 -19 -2 -28 8 -9 7 -20 -2 -39
-12 -23 -12 -26 0 -21 8 3 14 0 14 -6 0 -6 -4 -11 -9 -11 -8 0 -8 -40 -1 -60
4 -10 -2 -45 -9 -55 -8 -11 -8 -15 2 -67 9 -42 22 -49 30 -18 3 11 1 20 -3 20
-4 0 -2 21 6 48 8 26 14 56 13 67 -2 36 1 44 16 39 8 -3 45 -7 82 -9 38 -1 74
-3 81 -4 6 -1 12 -10 12 -21 0 -10 7 -23 16 -28 15 -8 15 -10 0 -15 -10 -4
-16 -18 -16 -39 0 -25 3 -29 10 -18 5 8 10 10 10 4 0 -5 -5 -15 -12 -22 -8 -8
-9 -15 -1 -23 13 -13 5 -59 -11 -59 -6 0 -3 -7 6 -14 10 -7 15 -16 11 -19 -3
-4 -1 -7 5 -7 7 0 12 -5 12 -11 0 -5 -5 -7 -12 -3 -7 4 -8 3 -4 -4 11 -18 23
-14 29 8 3 11 1 20 -4 20 -5 0 -4 12 1 26 13 34 13 91 0 99 -8 5 -7 11 1 21 6
8 8 14 4 14 -4 0 -2 7 5 15 9 10 9 15 1 15 -6 0 -11 5 -11 11 0 5 5 7 11 3 6
-3 4 5 -5 18 -15 23 -15 26 3 42 18 16 19 62 1 51 -4 -2 -6 6 -5 20 3 19 -3
26 -28 35 -24 8 -29 8 -20 -1 6 -6 9 -17 6 -24 -2 -7 4 -15 14 -18 10 -3 -26
-5 -80 -6 -54 0 -108 -6 -119 -12 -12 -7 -18 -7 -14 -1 3 6 0 13 -6 15 -10 4
-9 8 2 16 8 6 10 11 4 11 -7 0 -11 13 -9 33 2 17 4 32 4 32 1 0 4 16 6 36 2
22 -2 44 -10 55 -8 11 -15 14 -15 9z"/>
<path d="M6872 5503 c2 -9 10 -19 18 -21 12 -4 13 -3 3 10 -7 8 -10 18 -6 21
3 4 1 7 -6 7 -7 0 -11 -8 -9 -17z"/>
<path d="M4900 5491 c-13 -24 -25 -200 -16 -235 10 -39 73 -51 105 -21 18 18
20 237 3 258 -6 7 -27 14 -46 15 -26 2 -38 -2 -46 -17z"/>
<path d="M3850 5479 c0 -5 5 -7 10 -4 6 3 10 8 10 11 0 2 -4 4 -10 4 -5 0 -10
-5 -10 -11z"/>
<path d="M5635 5470 c-11 -4 -23 -6 -27 -3 -16 9 -29 -44 -34 -142 -5 -89 -3
-106 10 -111 9 -3 16 -12 16 -19 0 -7 9 -15 20 -18 11 -3 20 -1 20 4 0 5 6 9
14 9 24 0 28 35 21 153 -7 125 -11 138 -40 127z"/>
<path d="M2403 5272 c-8 -5 -3 -12 17 -19 24 -9 30 -9 30 2 0 7 -7 16 -16 19
-19 7 -16 7 -31 -2z"/>
<path d="M2482 5244 c-8 -8 -8 -15 -2 -19 6 -3 10 -1 10 5 0 7 7 5 16 -4 8 -9
22 -16 30 -16 8 0 12 -5 9 -11 -4 -6 -1 -9 6 -8 19 3 71 -11 88 -25 11 -8 13
-8 7 2 -4 6 -2 12 3 12 6 0 11 -4 11 -8 0 -5 11 -14 25 -20 32 -15 38 -15 30
-2 -11 17 7 11 21 -7 11 -14 13 -15 14 -3 0 10 5 7 16 -8 8 -12 23 -22 32 -21
14 0 13 2 -3 9 -13 5 -15 9 -5 9 12 1 12 3 -1 16 -19 19 -79 37 -79 24 0 -13
-16 -11 -32 4 -38 35 -48 40 -63 27 -12 -10 -15 -10 -15 4 0 9 -8 16 -18 16
-10 0 -34 8 -53 18 -28 14 -38 15 -47 6z"/>
<path d="M5137 5103 c-3 -5 1 -14 9 -21 12 -10 14 -10 14 2 0 17 -16 30 -23
19z"/>
<path d="M3543 5024 c3 -4 2 -15 -4 -25 -7 -15 -6 -17 5 -13 16 6 21 -7 30
-74 7 -49 109 -172 156 -187 11 -4 20 -12 20 -18 0 -7 12 -14 26 -15 15 -1 33
-7 40 -13 13 -11 59 -22 87 -21 9 0 15 -3 12 -9 -4 -5 9 -9 28 -9 18 0 37 -3
41 -7 8 -9 27 -12 96 -18 81 -7 94 -9 101 -18 7 -10 104 -11 118 -3 5 4 11 1
13 -5 2 -6 33 -11 71 -12 37 -1 67 -5 67 -9 0 -3 15 -4 33 -2 48 6 49 6 87 -3
19 -5 79 -9 133 -8 53 0 97 -3 97 -6 0 -3 38 -6 85 -5 47 1 85 -1 85 -4 0 -3
24 -6 53 -6 28 0 63 -3 77 -6 14 -3 33 -2 42 3 10 5 19 5 22 0 8 -12 46 -2 46
13 0 6 4 5 9 -3 5 -8 18 -12 29 -8 12 2 22 1 24 -4 2 -5 28 -5 61 1 32 5 68 6
80 1 25 -9 76 -7 125 4 23 5 32 4 32 -5 0 -13 75 -9 129 6 16 5 22 4 18 -3 -9
-15 164 -14 182 1 11 8 13 8 7 -1 -9 -15 6 -17 20 -3 7 7 20 7 41 -1 23 -7 37
-7 52 0 13 7 22 8 26 1 3 -5 20 -9 38 -9 18 1 56 -1 85 -4 28 -2 52 -1 52 4 0
4 59 6 131 3 101 -4 129 -2 123 7 -5 8 -2 10 8 6 9 -3 36 0 61 8 24 7 62 14
83 16 22 1 47 9 56 17 10 8 24 12 33 9 8 -4 15 -2 15 3 0 5 25 17 55 25 30 9
55 21 55 26 0 5 11 9 25 9 15 0 29 8 36 23 6 12 20 32 31 44 11 12 19 26 17
31 -5 13 -82 -13 -87 -28 -2 -5 -8 -7 -14 -4 -6 4 -13 2 -17 -5 -4 -6 -19 -12
-34 -13 -15 -1 -27 -5 -27 -8 0 -3 -10 -7 -22 -7 -13 -1 -27 -8 -33 -15 -5 -8
-20 -13 -32 -12 -13 1 -23 -3 -23 -7 0 -5 -3 -8 -7 -7 -5 1 -21 -4 -37 -11
-16 -6 -43 -11 -60 -10 -17 1 -44 -4 -61 -10 -16 -7 -48 -11 -70 -10 -23 2
-46 -1 -53 -5 -6 -4 -21 -2 -33 5 -12 6 -24 7 -28 3 -9 -13 -201 -15 -201 -3
0 6 -7 6 -19 -1 -12 -6 -21 -6 -23 0 -2 5 -18 6 -39 1 -21 -5 -43 -5 -50 -1
-7 5 -29 7 -50 6 -21 -2 -36 0 -34 4 5 8 -53 1 -85 -10 -5 -2 -25 -1 -110 4
-19 2 -41 -2 -47 -7 -9 -6 -13 -5 -13 4 0 9 -3 10 -8 4 -8 -11 -62 -16 -62 -6
0 4 -27 6 -60 4 -42 -2 -60 1 -60 10 0 8 -4 7 -10 -3 -7 -11 -10 -11 -10 -2 0
7 -4 10 -10 7 -5 -3 -19 -1 -30 5 -15 8 -20 8 -20 -1 0 -8 -12 -10 -34 -6 -19
3 -39 0 -45 -6 -6 -6 -11 -7 -11 -2 0 9 -147 12 -180 4 -8 -2 -14 2 -12 9 1 8
-1 11 -6 8 -29 -18 -159 -16 -148 3 5 8 -36 7 -50 -2 -5 -3 -23 -3 -39 0 -17
2 -42 5 -57 6 -16 1 -28 5 -28 10 0 4 -5 7 -11 7 -5 0 -8 -4 -5 -9 10 -15 -22
-21 -54 -10 -17 6 -37 8 -46 5 -8 -3 -31 1 -51 9 -20 9 -44 13 -55 9 -11 -3
-18 0 -18 8 0 10 -2 10 -8 1 -6 -9 -17 -10 -40 -4 -17 5 -34 6 -36 3 -5 -8
-45 -7 -104 3 -31 6 -40 10 -30 17 8 6 0 8 -27 5 -22 -2 -51 2 -64 9 -15 8
-28 10 -31 4 -4 -6 -18 -6 -39 0 -19 5 -38 7 -42 4 -5 -3 -9 -1 -9 5 0 6 -7 8
-15 5 -10 -4 -15 0 -15 11 0 14 -3 15 -15 5 -12 -10 -15 -10 -15 1 0 10 -3 10
-12 1 -9 -9 -16 -8 -30 5 -14 13 -18 13 -18 2 -1 -9 -8 -6 -20 9 -11 13 -24
21 -30 17 -5 -3 -10 0 -10 7 0 9 -3 9 -10 -2 -6 -9 -13 -11 -17 -5 -11 14 -47
19 -38 5 4 -7 -1 -7 -14 2 -12 7 -21 20 -22 28 0 10 -2 11 -6 3 -3 -10 -10
-10 -26 -1 -31 16 -47 34 -39 43 4 5 -1 5 -11 2 -13 -5 -20 0 -27 16 -5 12 -9
18 -9 12 -1 -5 -12 3 -26 19 -13 16 -22 33 -19 38 9 15 -65 98 -88 98 -12 0
-18 -3 -15 -6z"/>
<path d="M5738 4994 c-6 -5 -42 -11 -88 -13 -19 -1 -22 -3 -11 -10 9 -6 22 -6
34 1 14 7 22 7 27 -2 6 -9 9 -9 13 1 4 12 7 11 16 -1 6 -8 11 -11 11 -6 0 5 6
4 13 -1 18 -14 116 -14 141 -1 19 10 20 9 8 -5 -12 -14 -9 -15 32 -12 25 2 48
0 51 -4 2 -5 16 -6 30 -4 13 3 22 9 19 14 -7 12 3 11 26 -1 30 -16 120 -21
120 -7 0 8 3 8 9 -1 5 -8 17 -11 32 -7 50 12 118 12 123 -1 4 -10 26 -12 80
-10 42 1 78 5 81 8 4 3 20 1 37 -6 24 -8 32 -8 35 1 2 7 11 9 19 6 8 -3 14 0
14 7 0 7 8 9 20 5 12 -4 20 -2 20 5 0 7 8 9 20 5 12 -4 20 -2 20 5 0 6 -4 9
-9 6 -5 -4 -11 -1 -13 5 -2 6 -28 13 -57 16 -39 3 -51 1 -46 -7 5 -9 1 -10
-14 -5 -13 4 -21 2 -21 -6 0 -8 -4 -8 -12 -2 -17 13 -119 14 -135 1 -8 -6 -14
-4 -20 6 -11 19 -125 26 -131 7 -3 -9 -7 -9 -18 0 -16 13 -95 16 -113 4 -7 -4
-17 -3 -24 2 -15 11 -70 16 -63 5 7 -11 -188 -8 -196 3 -5 7 -11 7 -15 0 -10
-13 -65 -17 -58 -4 7 10 2 12 -7 3z"/>
<path d="M4916 4971 c-3 -5 3 -11 15 -14 16 -4 18 -3 8 9 -13 16 -16 17 -23 5z"/>
<path d="M6723 4093 c-7 -3 -13 -10 -13 -17 0 -7 -16 -18 -35 -25 -19 -7 -35
-17 -35 -22 0 -5 -7 -9 -15 -9 -8 0 -15 -4 -15 -10 0 -5 -10 -10 -22 -10 -12
0 -18 -3 -15 -7 8 -7 -53 -48 -66 -45 -5 2 -23 -6 -41 -18 -18 -11 -37 -16
-41 -12 -5 4 -5 2 -1 -5 4 -8 -3 -15 -21 -19 -15 -3 -53 -16 -84 -30 -31 -13
-66 -24 -78 -24 -26 0 -101 -29 -101 -40 0 -4 -14 -6 -30 -4 -20 2 -37 -3 -50
-16 -11 -11 -20 -15 -20 -10 0 6 -7 10 -15 10 -8 0 -15 -4 -15 -8 0 -4 -12 -9
-26 -10 -15 -1 -39 -8 -55 -16 -25 -12 -27 -12 -22 3 6 14 4 14 -14 -2 -11 -9
-22 -15 -25 -12 -2 3 -29 -2 -58 -11 -29 -9 -66 -14 -82 -12 -15 3 -28 1 -28
-3 0 -11 -59 -16 -63 -5 -2 6 -11 3 -21 -7 -15 -15 -21 -15 -34 -5 -14 11 -15
10 -9 -7 6 -17 5 -18 -5 -5 -18 21 -92 24 -111 5 -13 -13 -17 -13 -27 0 -7 8
-17 12 -23 8 -13 -8 -319 -5 -409 3 -42 4 -58 2 -58 -6 0 -10 -3 -10 -14 -1
-8 6 -30 10 -50 8 -20 -2 -36 0 -36 6 0 5 -7 4 -15 -3 -10 -9 -15 -9 -15 -1 0
6 -4 11 -10 11 -5 0 -10 -6 -10 -14 0 -8 -3 -16 -7 -19 -5 -2 -2 -2 6 0 8 2
18 -1 21 -8 4 -6 27 -13 51 -15 71 -6 79 -8 79 -18 0 -5 6 -2 13 8 10 13 18
15 37 8 14 -5 31 -7 38 -5 6 3 12 1 12 -4 0 -11 90 -10 108 0 6 5 12 4 12 -2
0 -6 6 -8 14 -5 8 3 24 1 35 -6 15 -8 21 -8 21 0 0 6 10 11 23 10 12 -1 24 -1
27 0 26 9 52 8 56 -4 4 -10 15 -11 50 -5 24 5 51 6 59 3 8 -4 15 -1 15 5 0 6
3 10 8 9 4 0 15 2 26 7 11 5 26 3 37 -3 22 -14 32 -15 25 -3 -4 5 8 4 25 -2
21 -8 33 -8 36 -2 1 6 21 10 44 9 22 0 43 4 45 10 2 6 22 10 47 8 24 -2 54 3
70 11 16 9 43 13 64 10 19 -3 38 0 42 5 4 6 18 13 33 16 14 2 35 9 45 14 10 6
31 8 47 5 20 -4 27 -2 22 6 -5 7 1 11 16 12 13 1 35 2 50 3 15 1 36 10 48 21
21 19 26 21 90 30 19 2 47 14 63 26 25 18 51 26 97 28 13 1 13 2 0 11 -12 8
-9 10 13 10 16 0 26 4 22 10 -3 5 0 7 7 5 8 -3 24 4 36 15 12 11 25 20 29 19
21 -4 34 3 61 32 15 16 36 31 46 33 10 1 21 7 24 13 4 5 20 13 35 17 15 4 25
10 23 15 -3 5 1 14 9 21 8 7 15 16 15 20 0 11 -22 18 -37 13z"/>
<path d="M4735 3700 c28 -12 47 -12 40 0 -3 6 -18 10 -33 9 -24 0 -25 -1 -7
-9z"/>
</g>
</svg>
